# xmcd
# 
# Track frame offsets:
#     182
#     10955
#     21862
#     42275
#     50950
#     63625
#     76727
#     87375
#     98100
#     110125
#     128137
#     142850
#     158925
#     173150
#     189450
# 
# Disc length: 2695
# 
# Revision: 6
# Processed by: cddbd v1.5.2PL0 Copyright (c) Steve Scherf et al.
# Submitted via: fre:ac v1.1beta2
# 
DISCID=ca0a850f
DTITLE=The Animals - House Of The Rising Sun
DYEAR=1987
DGENRE=Rock
TTITLE0=Baby Let Me Take You Home
TTITLE1=Gonna Send You Back To Walter
TTITLE2=House Of The Rising Sun
TTITLE3=Talkin' Bout You
TTITLE4=I'm Crying
TTITLE5=Take It Easy
TTITLE6=Don't Let Me Be Misunderstood
TTITLE7=Club A Gogo
TTITLE8=Bring It On Home To Me
TTITLE9=For Miss Caulker
TTITLE10=We've Gorra Get Out Of This Place
TTITLE11=I Can't Believe It
TTITLE12=It's My Life
TTITLE13=I'm Going To Change The World
TTITLE14=Bury My Body
EXTD=
EXTT0=
EXTT1=
EXTT2=
EXTT3=
EXTT4=
EXTT5=
EXTT6=
EXTT7=
EXTT8=
EXTT9=
EXTT10=
EXTT11=
EXTT12=
EXTT13=
EXTT14=
PLAYORDER=
